{
    "asset" : {
        "generator" : "Khronos glTF Blender I/O v1.6.16",
        "version" : "2.0"
    },
    "scene" : 0,
    "scenes" : [
        {
            "name" : "Scene",
            "nodes" : [
                0,
                1,
                2
            ]
        }
    ],
    "nodes" : [
        {
            "name" : "Light",
            "rotation" : [
                0.16907575726509094,
                0.7558803558349609,
                -0.27217137813568115,
                0.570947527885437
            ],
            "translation" : [
                4.076245307922363,
                5.903861999511719,
                -1.0054539442062378
            ]
        },
        {
            "name" : "Camera",
            "rotation" : [
                0.483536034822464,
                0.33687159419059753,
                -0.20870360732078552,
                0.7804827094078064
            ],
            "translation" : [
                7.358891487121582,
                4.958309173583984,
                6.925790786743164
            ]
        },
        {
            "mesh" : 0,
            "name" : "bread",
            "rotation" : [
                0.7071068286895752,
                0,
                0,
                0.7071067094802856
            ],
            "translation" : [
                0.04096060246229172,
                0.17871010303497314,
                0.05478769540786743
            ]
        }
    ],
    "materials" : [
        {
            "doubleSided" : true,
            "name" : "Standard737373",
            "pbrMetallicRoughness" : {
                "baseColorFactor" : [
                    0.45098039507865906,
                    0.45098039507865906,
                    0.45098039507865906,
                    1
                ],
                "metallicFactor" : 0
            }
        }
    ],
    "meshes" : [
        {
            "name" : "bread",
            "primitives" : [
                {
                    "attributes" : {
                        "POSITION" : 0,
                        "NORMAL" : 1,
                        "TEXCOORD_0" : 2
                    },
                    "indices" : 3,
                    "material" : 0
                }
            ]
        }
    ],
    "accessors" : [
        {
            "bufferView" : 0,
            "componentType" : 5126,
            "count" : 13535,
            "max" : [
                0.3212449252605438,
                0.3167928457260132,
                0.20317643880844116
            ],
            "min" : [
                -0.34760332107543945,
                -0.41288328170776367,
                -0.23530888557434082
            ],
            "type" : "VEC3"
        },
        {
            "bufferView" : 1,
            "componentType" : 5126,
            "count" : 13535,
            "type" : "VEC3"
        },
        {
            "bufferView" : 2,
            "componentType" : 5126,
            "count" : 13535,
            "type" : "VEC2"
        },
        {
            "bufferView" : 3,
            "componentType" : 5123,
            "count" : 61704,
            "type" : "SCALAR"
        }
    ],
    "bufferViews" : [
        {
            "buffer" : 0,
            "byteLength" : 162420,
            "byteOffset" : 0
        },
        {
            "buffer" : 0,
            "byteLength" : 162420,
            "byteOffset" : 162420
        },
        {
            "buffer" : 0,
            "byteLength" : 108280,
            "byteOffset" : 324840
        },
        {
            "buffer" : 0,
            "byteLength" : 123408,
            "byteOffset" : 433120
        }
    ],
    "buffers" : [
        {
            "byteLength" : 556528,
            "uri" : "data:application/octet-stream;base64,"
        }
    ]
}
