
<svg width="733px" height="1031px" viewBox="0 0 733 1031" version="1.1" xmlns="http://www.w3.org/2000/svg" xmlns:xlink="http://www.w3.org/1999/xlink">
    <title>brush-stroke</title>
    <g id="Artboard" stroke="none" stroke-width="1" fill="none" fill-rule="evenodd">
        <g transform="translate(-1207.000000, -1670.000000)" fill="pink" id="brush-stroke">
            <path d="M1887.5244,2204.75108 C1887.91074,2216.17597 1879.47471,2201.8898 1888.84174,2193.27765 C1889.18757,2199.78589 1890.26793,2197.82951 1893.39781,2193.68722 C1888.79274,2191.09693 1887.3741,2187.55932 1886.8954,2182.31371 C1884.74741,2183.73516 1884.77615,2187.86803 1881.24155,2185.1929 C1880.68558,2188.61269 1884.21218,2187.24449 1884.91373,2189.39458 C1883.5568,2193.77441 1876.32552,2184.90164 1880.27756,2198.66231 C1872.09596,2208.56771 1854.86017,2271.65319 1846.20883,2263.99685 C1853.38828,2261.66342 1846.52167,2260.80612 1842.94938,2265.54744 C1839.26353,2267.17485 1837.17632,2263.77487 1833,2265.26701 C1842.13192,2218.37225 1812.01194,2113.98685 1887.98848,2124.77689 C1879.81442,2133.41731 1886.87891,2132.79519 1895.23673,2131.19841 C1895.24709,2149.53544 1897.78002,2169.85996 1888.87143,2185.31356 C1891.696,2188.76869 1895.37431,2187.59891 1892.21945,2182.8246 C1899.78432,2175.91151 1892.8475,2190.74675 1896,2194.20283 C1892.68731,2197.20032 1892.29342,2209.09227 1887.5244,2204.75108 L1887.5244,2204.75108 Z M1877.01849,2215 C1876.88223,2213.87423 1877.4621,2213.3444 1880,2212 C1879.89705,2215.3315 1877.72365,2213.44829 1877.01849,2215 L1877.01849,2215 Z M1866.69856,2113 C1867.257,2118.34063 1867.257,2118.34063 1864.77227,2119 C1863.10388,2115.35973 1864.31852,2114.48677 1866.69856,2113 L1866.69856,2113 Z M1787.50609,2042.14059 C1787.38796,2037.67795 1774.38275,2029.09151 1778.9857,2027.78495 C1777.26119,2014.68461 1796.73253,2052.63658 1787.50609,2042.14059 L1787.50609,2042.14059 Z M1783.65983,2045.13078 C1780.28866,2042.31808 1780.12639,2041.34758 1783.14828,2038 C1783.8732,2041.74462 1781.8428,2045.00706 1786,2046.67991 C1783.44436,2047.07883 1781.62206,2047.53609 1783.65983,2045.13078 L1783.65983,2045.13078 Z M1782.95893,2050.03864 C1783.3058,2051.00646 1783.65359,2051.97427 1784,2052.94245 C1782.92682,2053.51837 1780.73777,2049.57071 1782.95893,2050.03864 L1782.95893,2050.03864 Z M1773.48596,2018 C1774.24009,2018.82996 1774.99464,2019.65941 1776,2020.76568 C1773.85652,2021.73613 1772.11761,2019.47193 1773.48596,2018 L1773.48596,2018 Z M1774.78437,2007 C1774.84757,2007.87693 1774.89962,2008.60292 1775,2010 C1772.37368,2008.59015 1772.36731,2007.82754 1774.78437,2007 L1774.78437,2007 Z M1771.43029,2039 C1771.11399,2037.98245 1768.85356,2036.46234 1770.74979,2036 C1770.89866,2036.93089 1772.97777,2038.64008 1771.43029,2039 L1771.43029,2039 Z M1767.19817,2049.78098 C1770.61878,2049.52516 1769.08356,2051.89907 1770,2052.96943 C1764.94173,2053.67739 1767.99585,2041.77321 1767.19817,2049.78098 L1767.19817,2049.78098 Z M1765,2061.79318 C1765.85956,2060.90978 1766.62816,2060.11833 1767.71453,2059 C1768.12445,2063.96148 1768.63169,2065.84912 1765,2061.79318 L1765,2061.79318 Z M1765.19138,2053 C1765.06407,2052.04068 1762.89233,2050.25074 1764.7443,2050 C1764.9152,2050.98484 1767.17068,2052.75703 1765.19138,2053 L1765.19138,2053 Z M1759.56736,2048 C1759.63014,2047.06389 1758.26843,2045.40408 1759.55517,2045 C1760.31222,2046.36194 1762.38161,2047.70516 1759.56736,2048 L1759.56736,2048 Z M1740.87196,2092 C1740.913,2090.47125 1739.01018,2087.48602 1740.70219,2087 C1740.92652,2088.77281 1743.39692,2091.71719 1740.87196,2092 L1740.87196,2092 Z M1740.99862,2098 C1738.14388,2097.73841 1738.53029,2094.6456 1741,2095.03363 C1741,2095.93231 1741,2096.83023 1740.99862,2098 L1740.99862,2098 Z M1739.73923,2115 C1737.18432,2113.16835 1734.42855,2109.2668 1737.07814,2107 C1741.72657,2110.91189 1741.72657,2110.91189 1739.73923,2115 L1739.73923,2115 Z M1733.49888,2139.49293 C1732.18051,2140.66443 1731.74507,2139.58784 1731,2138.46666 C1732.13972,2137.77612 1735.19353,2137.65444 1733.49888,2139.49293 L1733.49888,2139.49293 Z M1731.8186,2112 C1732.18823,2114.50002 1732.55786,2117.00053 1733,2119.99753 C1728.87295,2120.16238 1729.53157,2112.02487 1731.8186,2112 L1731.8186,2112 Z M1725.82104,2156.37548 C1722.86427,2158.36289 1718.02649,2165.48939 1720.30462,2156.74991 C1718.08932,2154.867 1721.60483,2154.34453 1720.86959,2153.01123 C1717.70611,2152.38427 1717.70611,2152.38427 1716.28984,2158.36852 C1711.42712,2155.74904 1705.5625,2159.67929 1715.11768,2151.34037 C1715.36372,2143.0414 1713.13787,2143.20173 1720.20246,2142.01133 C1726.14046,2141.68658 1723.27769,2148.41304 1725.51217,2153.24224 C1727.06034,2147.8998 1730.72501,2150.67397 1728.05025,2154.78555 C1729.03872,2158.52065 1729.39938,2159.12712 1725.82104,2156.37548 L1725.82104,2156.37548 Z M1711.37011,2260 C1707.80087,2256.89571 1710.85415,2253.18349 1704.75045,2254.37795 C1705.42487,2256.18777 1709.48764,2257.99322 1704.30131,2259.62878 C1701.50243,2257.09748 1697.50171,2262.8274 1696.21634,2254.82298 C1691.18895,2254.37271 1685.51816,2262.18846 1689.1547,2253.46081 C1689.78522,2251.98073 1687.99391,2249.60752 1691.68964,2248.6489 C1688.1414,2258.16048 1694.95293,2247.38761 1695.84644,2245 C1697.14182,2246.79104 1699.2639,2247.19327 1697.51316,2249.70186 C1698.56656,2254.8256 1703.3281,2256.73717 1705.19147,2249.09436 C1708.53734,2254.67318 1709.02132,2253.35862 1711.98105,2248.49779 C1712.10562,2247.84793 1708.62468,2247.32123 1711.09566,2245.66907 C1716.56121,2249.06161 1712.31182,2252.28775 1710.13247,2255.54883 C1716.36409,2253.83072 1713.74801,2254.88368 1711.37011,2260 L1711.37011,2260 Z M1683.08582,2210.88438 C1681.98483,2214.01084 1681.34805,2215.93801 1679,2211.6476 C1685.11157,2209.69333 1682.73754,2206.59349 1686.75266,2203 C1689.62521,2207.67081 1684.07972,2212.86044 1690,2216.25937 C1686.98242,2228.97911 1684.07244,2217.54189 1683.08582,2210.88438 L1683.08582,2210.88438 Z M1680,2330.89713 C1680.54599,2330.13208 1679.64222,2328.62266 1682,2329.087 C1681.52183,2329.88171 1682.28232,2331.40956 1680,2330.89713 L1680,2330.89713 Z M1679,2196.89844 C1680.03635,2195.96265 1680.33232,2193.54626 1681.91459,2194.07469 C1682.18349,2196.28016 1681.96963,2197.34921 1679,2196.89844 L1679,2196.89844 Z M1682,2187.52812 C1681.03821,2188.54491 1680.65748,2190.96806 1679,2189.58275 C1679.88355,2188.20934 1680.01761,2185.97479 1682,2187.52812 L1682,2187.52812 Z M1687,2183.12922 C1686.29742,2183.92837 1686.76492,2186.38131 1685,2185.94941 C1685.47462,2184.80589 1684.21282,2182.42045 1687,2183.12922 L1687,2183.12922 Z M1689.7274,2206 C1691.54093,2208.10327 1691.51723,2208.4877 1689,2212 C1689.30186,2209.51397 1689.51463,2207.75321 1689.7274,2206 L1689.7274,2206 Z M1699,2207 C1697.95681,2209.66259 1697.95681,2209.66259 1696,2210 C1696.71353,2208.24757 1696.71353,2208.24757 1699,2207 L1699,2207 Z M1704,2243 L1704,2249 C1699.9994,2245.19817 1700.0006,2244.9918 1704,2243 L1704,2243 Z M1701.85316,2235 C1702.26423,2237.90692 1701.96048,2239.27522 1699,2240 C1700.11626,2238.04387 1700.76627,2236.90548 1701.85316,2235 L1701.85316,2235 Z M1676,2291.81799 C1676.49109,2290.87883 1676.98219,2289.93966 1677.4741,2289 C1678.33963,2289.41907 1678.32087,2292.81367 1676,2291.81799 L1676,2291.81799 Z M1675.99839,2287.99984 C1672.28472,2288.02449 1674.62973,2285.2157 1676,2285 C1676,2285.93215 1676,2286.86469 1675.99839,2287.99984 L1675.99839,2287.99984 Z M1673.56283,2299 C1672.80289,2297.51684 1672.04242,2296.03313 1671,2294 C1674.36072,2294.83042 1674.36072,2294.83042 1673.56283,2299 L1673.56283,2299 Z M1657.88152,2618 C1653.30501,2615.12773 1651.16414,2614.06097 1654.94035,2609 C1659.59494,2610.8529 1659.75157,2612.48765 1657.88152,2618 L1657.88152,2618 Z M1654,2616 C1655.25749,2617.24076 1655.98482,2617.95811 1657,2618.95933 C1654.97968,2619.23936 1654.61814,2618.05401 1654,2616 L1654,2616 Z M1651.34588,2622.74508 C1648.36919,2621.67909 1651.1316,2620.94519 1652.01318,2620 C1652.2286,2621.13199 1654.48741,2623.83804 1651.34588,2622.74508 L1651.34588,2622.74508 Z M1654,2599.75653 C1652.86013,2600.23447 1651.59087,2602.0007 1651,2600.22541 C1652.13083,2599.7665 1653.40961,2598.01298 1654,2599.75653 L1654,2599.75653 Z M1637,2635 C1643.35501,2635.55442 1644.19202,2636.09555 1645,2639.99591 C1641.42498,2640.11497 1639.63695,2637.61523 1637,2635 L1637,2635 Z M1644.58199,2644 C1643.88416,2643.02255 1641.3946,2642.41737 1642.13664,2641 C1643.1739,2641.95067 1646.07339,2642.09685 1644.58199,2644 L1644.58199,2644 Z M1634.00287,2644.18031 C1638.20367,2643.34269 1640.35341,2645.61848 1643,2647 C1640.19207,2645.34727 1633.84548,2647.77047 1634.00287,2644.18031 L1634.00287,2644.18031 Z M1632,2654.40466 C1633.88683,2652.2106 1635.01216,2652.72246 1637,2655 C1634.87437,2654.74746 1633.75346,2654.61389 1632,2654.40466 L1632,2654.40466 Z M1635.64734,2671 C1634.76503,2670.36536 1632.35418,2670.37711 1633.16365,2669 C1634.44011,2669.52683 1636.91862,2669.17118 1635.64734,2671 L1635.64734,2671 Z M1626,2446 C1627.48101,2443.18301 1632.90943,2425.34742 1634,2432.81117 C1629.32696,2435.54372 1631.36467,2445.88994 1626,2446 L1626,2446 Z M1628,2494.86012 C1628.66832,2493.45587 1628.39403,2489.1419 1630,2490.15154 C1629.32795,2491.54 1629.57821,2495.82404 1628,2494.86012 L1628,2494.86012 Z M1626,2487.94911 C1626.6041,2485.94179 1625.52319,2481.26198 1628,2482.09921 C1627.2794,2483.73347 1627.7959,2488.54567 1626,2487.94911 L1626,2487.94911 Z M1629.49436,2477.00997 C1629.60709,2477.92056 1631.12928,2479.0883 1628.2742,2478.99471 C1628.43425,2478.20421 1626.98176,2476.87167 1629.49436,2477.00997 L1629.49436,2477.00997 Z M1628,2448.07055 C1626.2802,2449.78575 1625.07604,2450.40049 1627.26313,2452.6451 C1617.43205,2454.68874 1623.57526,2447.20139 1628,2448.07055 L1628,2448.07055 Z M1627.65769,2436 C1629.13601,2440.12207 1625.42024,2443.15213 1624.22211,2446.9991 C1618.04178,2447.09047 1626.60315,2440.2327 1627.65769,2436 L1627.65769,2436 Z M1624.58183,2430 C1625.22485,2433.06645 1625.39488,2435.67348 1623.08733,2439 C1622.89062,2433.06942 1622.89062,2433.06942 1624.58183,2430 L1624.58183,2430 Z M1636,2476.13823 C1635.30236,2476.94833 1635.72311,2479.35283 1634,2478.95617 C1634.65627,2478.08282 1634.03183,2475.35997 1636,2476.13823 L1636,2476.13823 Z M1642,2601.13456 C1641.75384,2602.08997 1641.50769,2603.04499 1641.26103,2604 C1639.3205,2602.73336 1639.66027,2600.4185 1642,2601.13456 L1642,2601.13456 Z M1598,2538.81364 C1598.55917,2537.72569 1598.12874,2535.41119 1600,2536.139 C1599.63849,2537.55055 1600.28674,2539.63656 1598,2538.81364 L1598,2538.81364 Z M1598,2521 C1598.27369,2519.64289 1598.54674,2518.28468 1599.00678,2516 C1599.97992,2518.4085 1601.01776,2519.88396 1598,2521 L1598,2521 Z M1597.05236,2535.96828 C1596.51005,2530.63801 1600.40433,2517.89108 1598.44369,2530.17493 C1598.97096,2531.46378 1599.65391,2536.44246 1597.05236,2535.96828 L1597.05236,2535.96828 Z M1595,2542.79248 C1595.35458,2541.82452 1595.16241,2540.45108 1597,2541.22944 C1596.50372,2541.98109 1596.4429,2543.56631 1595,2542.79248 L1595,2542.79248 Z M1592,2617.83356 C1592.64564,2616.97274 1592.78051,2614.22275 1594,2615.21163 C1593.34784,2615.9983 1593.11377,2618.69053 1592,2617.83356 L1592,2617.83356 Z M1588,2585 C1589.12171,2582.33328 1589.82252,2580.66664 1590.52384,2579 C1591.11852,2581.10639 1591.84169,2583.22713 1588,2585 L1588,2585 Z M1586,2592 C1586.34725,2591.11202 1586.69405,2590.22348 1587.17218,2589 C1588.72598,2591.09866 1587.95525,2591.91821 1586,2592 L1586,2592 Z M1654,2184 C1654.79092,2179.4989 1653.11494,2175.1849 1659.64968,2175 C1660.87111,2178.72689 1658.8774,2181.95998 1654,2184 L1654,2184 Z M1648,2260 C1648.87921,2258.09777 1649.75305,2256.20762 1650.77416,2254 C1651.48563,2257.47385 1650.50401,2259.35664 1648,2260 L1648,2260 Z M1644.33623,2231.85996 C1645.79748,2234.44018 1647.31397,2235.80675 1643.7357,2238 C1641.60561,2232.61084 1644.76258,2229.59357 1644.92157,2225.32231 C1644.17851,2220.26692 1647.26463,2224.87329 1649,2226.00005 C1643.36965,2229.43577 1650.80832,2231.22875 1644.33623,2231.85996 L1644.33623,2231.85996 Z M1645.05216,2266 C1644.77464,2263.42338 1645.58273,2260.21296 1648,2261.17437 C1647.19657,2262.49006 1646.39315,2263.80575 1645.05216,2266 L1645.05216,2266 Z M1644.01726,2255 C1641.98619,2251.26347 1643.17583,2244.10742 1646,2244 C1645.37272,2247.4824 1644.74545,2250.9648 1644.01726,2255 L1644.01726,2255 Z M1645.22796,2212 C1645.13844,2210.81916 1645.06849,2209.90958 1645,2209 C1647.62738,2210.57275 1647.62738,2210.57275 1645.22796,2212 L1645.22796,2212 Z M1646.02112,2203 C1647.46271,2204.70176 1647.46271,2204.70176 1645,2206 C1645.45345,2204.66855 1645.69322,2203.96186 1646.02112,2203 L1646.02112,2203 Z M1640.17582,2207.56651 C1640.663,2214.95837 1633.6123,2218.70563 1633.68131,2226 C1631.47652,2216.51867 1632.51853,2229.49041 1630,2223.18499 C1632.24293,2218.72672 1629.01656,2196.17805 1635.51516,2203.36977 C1635.52969,2196.08384 1640.09274,2200.0181 1637.8439,2194 C1645.30869,2199.13882 1633.67132,2202.50174 1634.63252,2208.13364 C1638.54312,2203.22307 1645.24739,2197.81381 1640.17582,2207.56651 L1640.17582,2207.56651 Z M1625.51473,2200 C1629.5919,2202.87174 1623.71429,2213.87281 1630,2208.31549 C1626.71775,2222.50514 1623.78085,2206.44093 1625.51473,2200 L1625.51473,2200 Z M1626.35424,2216 C1627.10758,2218.29008 1627.52308,2219.55257 1628,2221 C1624.33471,2219.90466 1624.33471,2219.90466 1626.35424,2216 L1626.35424,2216 Z M1622.74312,2239.96445 C1623.02998,2245.78762 1621.59477,2237.97761 1619.19728,2243 C1616.88507,2239.48272 1623.3401,2234.00489 1617,2233.91819 C1621.6235,2233.05361 1619.61594,2216.74288 1624.95226,2225.6547 C1628.6632,2228.6318 1630.09111,2240.68388 1622.74312,2239.96445 L1622.74312,2239.96445 Z M1617.36682,2235 C1621.85726,2237.41653 1615.45563,2240.32679 1617.36682,2235 L1617.36682,2235 Z M1614.16045,2246 C1613.62283,2242.33217 1614.40348,2242.60761 1617,2243.78778 C1615.99976,2244.56691 1615.26886,2245.13642 1614.16045,2246 L1614.16045,2246 Z M1611,2260.95727 C1611.7713,2259.55197 1612.41503,2259.85241 1614,2260.84005 C1612.47047,2261.81384 1611.51119,2262.81625 1611,2260.95727 L1611,2260.95727 Z M1610.96801,2226 C1607.55938,2225.08661 1609.40006,2224.3648 1610.42023,2222.40399 C1610.92613,2216.3825 1611.0732,2223.23672 1610.96801,2226 L1610.96801,2226 Z M1612,1757.79779 C1610.49509,1759.20131 1610.14871,1759.52094 1609,1757.97354 C1610.05536,1756.67409 1610.46266,1756.73682 1612,1757.79779 L1612,1757.79779 Z M1611.71999,1806 C1611.48698,1805.02857 1611.28637,1804.19229 1611,1803 C1613.47588,1803.7941 1613.57833,1804.64898 1611.71999,1806 L1611.71999,1806 Z M1620,1735 C1619.38026,1734.64751 1618.76006,1734.29501 1618,1733.86265 C1619.65775,1731.66042 1619.63166,1734.28515 1620,1735 L1620,1735 Z M1623.93284,1806 C1622.77238,1804.27995 1622.509,1803.6766 1624.22321,1803 C1625.72002,1803.64718 1624.73248,1804.64103 1623.93284,1806 L1623.93284,1806 Z M1623.22302,1728.20865 C1619.91191,1718.03963 1632.7796,1725.31302 1623.68701,1728.66969 C1622.04147,1733.04745 1607.53594,1730.29275 1623.22302,1728.20865 L1623.22302,1728.20865 Z M1628,1741.32841 C1626.90551,1741.57375 1626.10383,1741.75336 1625,1742 C1626.39299,1739.45809 1626.39299,1739.45809 1628,1741.32841 L1628,1741.32841 Z M1630.0528,1731 C1630.81166,1731.75896 1631.57051,1732.51868 1633,1733.94878 C1630.35642,1734.22842 1629.80738,1733.37937 1630.0528,1731 L1630.0528,1731 Z M1636,1789 C1635.32747,1790.50373 1634.74307,1791.81236 1633.76597,1794 C1632.50904,1790.016 1632.50904,1790.016 1636,1789 L1636,1789 Z M1605,2268.47068 C1605.991,2267.70477 1606.85207,2264.88289 1608,2266.48348 C1607.0015,2267.31973 1606.21089,2270.1661 1605,2268.47068 L1605,2268.47068 Z M1464.23128,2518 C1463.22352,2515.33531 1465.77074,2514.43869 1466.84902,2512 C1467.19008,2515.49766 1467.19008,2515.49766 1464.23128,2518 L1464.23128,2518 Z M1440.47164,2533 C1439.32351,2532.42671 1437.16667,2532.59696 1438.33833,2530 C1439.62302,2530.649 1442.07994,2531.89622 1440.47164,2533 L1440.47164,2533 Z M1427.47464,2524 C1422.17599,2514.99959 1433.17562,2522.32335 1429.0798,2513 C1432.20835,2515.57291 1430.87869,2519.20583 1429.53463,2521.614 C1428.78525,2516.11249 1427.03003,2520.72479 1427.47464,2524 L1427.47464,2524 Z M1427,2529.96667 C1427.52981,2528.99081 1426.00177,2526.692 1428.7223,2527.03447 C1428.44142,2528.20321 1430.31594,2530.28843 1427,2529.96667 L1427,2529.96667 Z M1422,2527 C1422.00688,2523.28751 1423.03842,2517.21497 1423.18929,2524.21192 C1424.83547,2525.67273 1423.73902,2526.27701 1422,2527 L1422,2527 Z M1421,2520.65374 C1421.96835,2519.83641 1422.40779,2517.10107 1424,2518.29883 C1423.04905,2518.99241 1422.19205,2522.00987 1421,2520.65374 L1421,2520.65374 Z M1412.36813,2508 C1410.66779,2502.75323 1415.29917,2501.86778 1417.26368,2497 C1420.11348,2500.05996 1413.87663,2504.69198 1412.36813,2508 L1412.36813,2508 Z M1413,2530 C1413.08568,2528.85991 1413.14834,2528.0242 1413.22507,2527 C1415.6279,2528.45841 1415.6279,2528.45841 1413,2530 L1413,2530 Z M1409,2535.84426 C1411.30797,2534.7501 1413.09851,2533.90158 1415,2533 C1413.51254,2536.20014 1413.51254,2536.20014 1409,2535.84426 L1409,2535.84426 Z M1407,2517.92742 C1407.64243,2516.99769 1406.49958,2514.5722 1409,2515.06548 C1408.37363,2516.01497 1409.57227,2518.44962 1407,2517.92742 L1407,2517.92742 Z M1403.93918,2496.53741 C1405.23537,2501.25635 1402.71512,2504.3953 1399.50281,2508 C1394.41451,2504.13333 1403.87335,2492.21025 1403.94278,2496.53646 C1406.35348,2496.94875 1405.13483,2494.23067 1407,2493 C1406.75338,2496.1108 1406.73625,2497.61825 1403.93918,2496.53741 L1403.93918,2496.53741 Z M1389.21327,2542 C1386.75532,2537.71281 1386.91895,2532.89847 1389.66667,2528.38042 C1386.86221,2528.12469 1387.54965,2527.53303 1387,2523.80432 C1391.07143,2526.93308 1393.01925,2507.49465 1390.62766,2531.01108 C1391.82421,2539.80572 1397.08308,2509.25901 1398.46201,2522.13303 C1398.98278,2518.39971 1403.07801,2502.11723 1406,2508.4448 C1400.64184,2520.66173 1397.05826,2530.38348 1389.21327,2542 L1389.21327,2542 Z M1400.98163,2539 C1399.45719,2536.03874 1399.68024,2532.92731 1401.8477,2528 C1404.62875,2531.81253 1401.57822,2535.42563 1400.98163,2539 L1400.98163,2539 Z M1388.20544,2547 C1385.40928,2546.08312 1385.90518,2544.52677 1386.33237,2542 C1389.08557,2543.81234 1389.70344,2545.08057 1388.20544,2547 L1388.20544,2547 Z M1385.93231,2558 C1384.97593,2557.41278 1382.66021,2558.92012 1383.04212,2556.12461 C1384.12473,2556.5671 1386.42264,2554.72479 1385.93231,2558 L1385.93231,2558 Z M1384.59722,2538.00949 C1388.1498,2537.70954 1383.80812,2544.60552 1384.02368,2547 C1383.92545,2543.95795 1381.43646,2540.76455 1384.59722,2538.00949 L1384.59722,2538.00949 Z M1381.17934,2536.77283 C1383.54623,2533.52063 1385.05331,2535.22931 1383.10839,2538 C1382.15334,2537.8788 1380.44244,2538.35373 1381.17934,2536.77283 L1381.17934,2536.77283 Z M1391.13153,2510 C1390.07178,2512.51748 1394.30957,2515.32752 1390.08184,2518 C1389.36174,2515.05396 1387.5961,2512.38045 1391.13153,2510 L1391.13153,2510 Z M1395.27034,2504 C1397.2274,2508.89042 1394.76637,2512.74773 1393.50545,2518 C1391.91125,2512.08049 1394.53162,2508.26048 1395.27034,2504 L1395.27034,2504 Z M1397,2499 C1396.60485,2499.87956 1396.2097,2500.75954 1395.65178,2502 C1394.33716,2500.15522 1395.12459,2499.33927 1397,2499 L1397,2499 Z M1396.57634,2473 C1397.07653,2473.81959 1398.16043,2475.12254 1397.97995,2475.37849 C1396.727,2477.54898 1395.12352,2473.36642 1396.57634,2473 L1396.57634,2473 Z M1403,2492.39467 C1400.3356,2497.79725 1400.33107,2487.4135 1403,2492.39467 L1403,2492.39467 Z M1401.01494,2488.36443 C1400.5622,2478.0271 1410.60194,2488.74078 1403.37654,2493 C1403.28743,2489.34708 1403.94518,2483.21206 1401.01494,2488.36443 L1401.01494,2488.36443 Z M1414,2492.26526 C1413.66717,2492.79746 1413.31195,2493.36737 1412.91609,2494 C1411.80095,2492.92616 1411.81509,2491.83456 1412.36706,2491 L1414,2492.26526 Z M1508.10586,2196.07718 C1505.6151,2193.57371 1505.63833,2191.42794 1506.61539,2190 C1508.05609,2195.70024 1507.03798,2195.76226 1512,2197.99697 C1510.1537,2198.03159 1508.88635,2197.79263 1508.10586,2196.07718 L1508.10586,2196.07718 Z M1502.32837,2184 C1502.01001,2182.98783 1500.04161,2181.52246 1501.58214,2181 C1501.99131,2182.05459 1504.03877,2183.44854 1502.32837,2184 L1502.32837,2184 Z M1460.1156,2059.44518 C1443.40675,2079.77946 1499.65964,1971.28695 1493.10177,1996.34224 C1501.34688,1997.83077 1504.28747,1984.03478 1509.57209,1979.16713 C1506.92646,1977.32338 1506.01977,1977.30588 1503.66815,1980.06347 C1495.65065,1987.87649 1499.6198,1974.68688 1505.42036,1973.56871 C1503.10858,1966.25187 1523.75528,1965.13369 1516.59232,1961.74891 C1523.26353,1958.83002 1524.57235,1952.03396 1528.33332,1946.53155 C1532.81462,1948.69647 1534.07698,1944.5984 1530.86087,1941.66816 C1533.60371,1936.59287 1541.99204,1928.82526 1535.80026,1926.02936 C1547.23351,1924.26176 1529.6834,1922.75289 1543.2231,1913.23281 C1538.37618,1913.42627 1541.99821,1908.666 1545.08485,1910.61996 C1549.0412,1911.92024 1552.10224,1910.88295 1554.13803,1907.17699 C1552.69927,1907.0157 1552.69927,1907.0157 1548.49633,1909.02122 C1544.92741,1899.71731 1563.98503,1906.00443 1558.14701,1896.6324 C1556.50577,1893.51864 1560.51238,1891.06992 1560.68689,1895.09704 C1567.74221,1894.581 1571.70805,1881.31524 1579,1887.7646 C1577.61815,1887.93251 1576.19267,1887.01347 1575.40453,1887.87244 C1577.78791,1896.24691 1550.83467,1914.68303 1561.36075,1913.14862 C1562.97971,1914.51417 1553.57182,1928.4322 1543.31272,1940.3693 C1545.66718,1931.50197 1552.96341,1925.29715 1556.87802,1917.07357 C1543.76465,1928.28699 1536.95544,1942.7589 1527.16629,1958.11437 C1521.89353,1958.40338 1522.68878,1971.13607 1516.88206,1969.9635 C1502.82453,1999.31174 1476.61674,2032.86636 1460.1156,2059.44518 L1460.1156,2059.44518 Z M1456,2166 C1459.26769,2166.2526 1459.33706,2169.33797 1461,2171 C1457.70764,2169.85475 1457.35894,2169.5127 1456,2166 L1456,2166 Z M1455,1853.73831 C1457.44394,1854.11391 1457.84558,1850.02503 1461,1851.2194 C1458.39413,1853.60963 1455.12145,1861.33082 1455,1853.73831 L1455,1853.73831 Z M1461,1848.14945 C1459.06317,1848.35028 1457.22954,1849.7961 1456,1848.39636 C1458.11925,1846.00593 1459.4447,1844.59141 1461,1848.14945 L1461,1848.14945 Z M1468.42414,1843 C1468.24632,1840.54276 1468.15014,1839.21154 1468,1837.13724 C1472.89343,1836.42525 1470.88204,1838.49903 1468.42414,1843 L1468.42414,1843 Z M1445.67313,1849.48498 C1444.39139,1846.60998 1447.97628,1844.15973 1444.7513,1842.30792 C1442.60037,1843.01267 1444.99267,1846.28632 1442.35474,1846.61093 C1438.15531,1855.54345 1432.91313,1863.71237 1426.10422,1871 C1425.01358,1861.72863 1432.78889,1858.87974 1435.15842,1851.4559 C1440.79323,1849.2306 1432.86523,1843.26895 1439.2706,1841.07782 C1442.59468,1848.34077 1441.59604,1837.50804 1447.24555,1842.09199 C1452.43746,1846.51554 1454.22516,1835.15697 1459.53895,1837.65943 C1454.42622,1831.82116 1473.60013,1819.94958 1463.32157,1821.99121 C1460.91031,1821.99454 1459.69875,1818.32842 1462.85639,1820.71365 C1464.89351,1819.01086 1466.62905,1816.37885 1467.77185,1814.04819 C1470.25519,1814.44162 1469.78005,1812.64391 1469.78953,1811.24011 C1475.29299,1810.98431 1476.67431,1805.13181 1480.89556,1803 C1482.07914,1808.33759 1476.95124,1812.53951 1475.77382,1816.7177 C1474.68366,1821.73494 1470.26325,1818.57757 1468.80938,1823.19759 C1474.00604,1822.36044 1470.42969,1826.84046 1469.93938,1830.3457 C1475.58652,1829.78854 1473.30945,1823.89238 1477.92618,1822.75149 C1476.81562,1819.10672 1477.02284,1818.74652 1479.96709,1817.26251 C1494.69641,1799.6452 1494.73435,1798.93998 1486.37389,1822.06287 C1480.07948,1817.74421 1478.56539,1834.27283 1468.03882,1831.66408 C1463.88586,1839.62323 1462.05453,1840.51829 1454.55947,1847.25209 C1457.94851,1838.71679 1447.77996,1844.60251 1445.67313,1849.48498 L1445.67313,1849.48498 Z M1447,1866.10038 C1448.19851,1864.79071 1448.54649,1862.54246 1452,1863.0821 C1450.54037,1864.60422 1448.69835,1871.19222 1447,1866.10038 L1447,1866.10038 Z M1446.9935,1866 C1447.24389,1875.47719 1440.13463,1869.13979 1446.9935,1866 L1446.9935,1866 Z M1449.77402,1857 C1450.8413,1860.36202 1447.82681,1858.32337 1447,1858.94129 C1447.89475,1858.31483 1448.78951,1857.6888 1449.77402,1857 L1449.77402,1857 Z M1441.20994,1856.71719 C1444.08525,1852.78767 1452.7929,1848.85677 1447.1216,1855.83855 C1443.22569,1857.59674 1449.44377,1862.05978 1444.58404,1863 C1433.88022,1862.03221 1445.92771,1863.04963 1441.20994,1856.71719 L1441.20994,1856.71719 Z M1440,1868.30533 C1440.53039,1866.84194 1440.91455,1864.78303 1443,1866.92138 C1441.78048,1867.53094 1440.24835,1870.26048 1440,1868.30533 L1440,1868.30533 Z M1434.06346,1869.20958 C1432.98505,1872.52879 1430.27533,1873.52401 1427,1874 C1428.73337,1869.40298 1440.57147,1859.29336 1434.06346,1869.20958 L1434.06346,1869.20958 Z M1433,1875.75558 C1433.66237,1875.10688 1434.05781,1873.21236 1435,1874.36317 C1434.35096,1874.82014 1433.75048,1876.65404 1433,1875.75558 L1433,1875.75558 Z M1424.35835,1882 C1420.98719,1878.31414 1424.45518,1872.79624 1428.60975,1873.0058 C1430.25765,1877.75581 1426.27264,1879.04883 1424.35835,1882 L1424.35835,1882 Z M1421,1860.76748 C1422.03285,1860.709 1423.99309,1858.91801 1424,1861.0174 C1422.81804,1861.32762 1421.05492,1863.20541 1421,1860.76748 L1421,1860.76748 Z M1420,1853 C1420.39017,1851.00174 1420.65163,1849.66055 1420.97515,1848 C1423.81957,1850.13064 1423.81957,1850.13064 1420,1853 L1420,1853 Z M1414.43736,1887.10298 C1409.58601,1897.64061 1412.65371,1883.65098 1417.72657,1882 C1423.89389,1887.12963 1415.69675,1883.14063 1414.43736,1887.10298 L1414.43736,1887.10298 Z M1445.64938,1838.0505 C1443.78121,1826.58546 1461.64507,1831.67068 1450.06995,1835.48298 C1450.04332,1842.13721 1441.76002,1838.68834 1437,1840 C1439.33449,1835.48298 1440.42353,1835.23578 1445.64938,1838.0505 L1445.64938,1838.0505 Z M1447,1826 C1446.55846,1826.95546 1446.11732,1827.91091 1445.61418,1829 C1443.27085,1827.30628 1443.27085,1827.30628 1447,1826 L1447,1826 Z M1457,1801.41771 C1455.53613,1803.61552 1453.93728,1802.97301 1452,1802.68952 C1452.05784,1798.5692 1453.80384,1800.06398 1457,1801.41771 L1457,1801.41771 Z M1497,1812.50842 C1489.75746,1817.68771 1490.93516,1807.29545 1497,1812.50842 L1497,1812.50842 Z M1498,1986.92335 C1496.81976,1988.89565 1496.34577,1987.69676 1495,1986.95105 C1495.84288,1985.19477 1496.59958,1986.28942 1498,1986.92335 L1498,1986.92335 Z M1497.95206,1811.20732 C1497.65954,1811.50146 1497.38145,1811.76251 1497.11268,1812 C1495.70501,1806.31753 1508.14392,1810.2832 1497.95206,1811.20732 L1497.95206,1811.20732 Z M1504,1961 C1503.8006,1963.10285 1503.65804,1964.60645 1503.4311,1967 C1500.68474,1963.40347 1499.51719,1962.54824 1504,1961 L1504,1961 Z M1516.1275,1795 C1519.07444,1799.28048 1513.62151,1799.84247 1513.49825,1803 C1507.26175,1802.40382 1514.46336,1798.49391 1516.1275,1795 L1516.1275,1795 Z M1519,1950.69866 C1516.64014,1952.66132 1515.13413,1954.83144 1514,1950.42137 C1516.16316,1950.55348 1518.09409,1949.23031 1519,1950.69866 L1519,1950.69866 Z M1525,1789.65209 C1524.26358,1790.22886 1523.52627,1790.80604 1522,1792 C1523.48406,1790.2829 1523.66861,1787.80916 1525,1789.65209 L1525,1789.65209 Z M1532,1931 C1531.3539,1933.03563 1530.91437,1934.41865 1530.41238,1936 C1528.31989,1933.81214 1528.31989,1933.81214 1532,1931 L1532,1931 Z M1531.59688,1772 C1532.32907,1773.5969 1533.02884,1775.12317 1534,1777.24357 C1526.95272,1774.73959 1533.64479,1781.68289 1528.04012,1783.71165 C1525.27391,1780.78653 1524.32452,1778.82304 1524.30645,1784 C1522.02698,1782.60785 1523.33437,1781.31272 1523.75905,1780.07213 C1521.1716,1771.27084 1525.86439,1777.34014 1531.59688,1772 L1531.59688,1772 Z M1541.75703,1765 C1546.90231,1766.68897 1534.57486,1777.82373 1532,1772.63137 C1533.1559,1765.17337 1537.85205,1769.70556 1541.75703,1765 L1541.75703,1765 Z M1557,1897.21202 C1555.72778,1898.39411 1555.03758,1899.03615 1554,1900 C1553.99834,1897.49896 1554.49841,1896.53088 1557,1897.21202 L1557,1897.21202 Z M1569,1883.52892 C1568.14168,1884.96971 1568.18082,1886.95404 1566,1885.48089 C1566.8484,1883.98995 1567.06174,1882.0493 1569,1883.52892 L1569,1883.52892 Z M1578.45379,1877 C1577.41159,1879.72107 1581.48094,1883.68917 1576.3123,1882.89748 C1576.09044,1880.82521 1575.0859,1878.78556 1578.45379,1877 L1578.45379,1877 Z M1542,1940 C1541.03826,1946.00018 1538.02595,1941.37733 1542,1940 L1542,1940 Z M1428.99593,2513 C1427.44978,2511.56759 1426.92826,2511.07595 1427.00777,2510 C1427.08503,2510.13165 1429.10239,2512.87089 1428.99593,2513 L1428.99593,2513 Z M1370.63846,2552 C1369.89293,2549.11593 1369.26797,2545.39593 1372,2546.08301 C1371.63197,2547.68306 1371.26395,2549.28311 1370.63846,2552 L1370.63846,2552 Z M1310,1869.85707 C1312.51297,1867.07384 1313.70384,1867.53071 1316,1870.48163 C1313.55088,1871.07908 1311.67457,1871.46833 1310,1869.85707 L1310,1869.85707 Z M1279,2191.68432 C1280.92805,2191.6897 1284.78144,2187.91032 1285,2191.65684 C1283.21977,2191.47041 1279.25393,2194.75085 1279,2191.68432 L1279,2191.68432 Z M1275.75671,1951 C1273.91916,1948.00739 1275.72593,1944.84919 1278,1946.41498 C1277.34202,1947.76047 1276.68361,1949.10498 1275.75671,1951 L1275.75671,1951 Z M1283.53672,1940 C1281.29035,1939.01946 1279.74937,1938.45032 1282.38968,1937 C1284.84746,1937.18714 1283.84191,1938.56902 1283.53672,1940 L1283.53672,1940 Z M1282.91638,1931 C1284.61141,1933.85298 1284.47093,1934.42322 1281.39759,1937 C1276.00392,1936.86659 1281.14676,1932.57686 1282.91638,1931 L1282.91638,1931 Z M1251,1994 C1253.27313,1992.78081 1254.81581,1991.95326 1256.59228,1991 C1257.47173,1993.56882 1257.45768,1993.57626 1251,1994 L1251,1994 Z M1218.74703,2140 C1217.75795,2139.53726 1216.49075,2139.60703 1217.21281,2138 C1218.23932,2138.45822 1219.56083,2138.35332 1218.74703,2140 L1218.74703,2140 Z M1216,2149 C1216,2147.73375 1216,2146.90828 1216.00056,2146 C1218.08797,2146.20535 1219.18899,2147.77126 1216,2149 L1216,2149 Z M1645,1713.55786 C1642.59589,1714.16792 1642.0553,1714.29794 1640,1715 C1640.68335,1712.65667 1640.68335,1712.65667 1645,1713.55786 L1645,1713.55786 Z M1769.09462,1693 C1771.52224,1697.50751 1768.40476,1700.54303 1767.45015,1704 C1768.20175,1700.50314 1765.08783,1696.22067 1769.09462,1693 L1769.09462,1693 Z M1774.73879,1695 C1778.94619,1695.2553 1779.00204,1698.32631 1775.37116,1697.84188 C1775.14065,1705.01383 1770.58867,1708.03846 1774.73879,1695 L1774.73879,1695 Z M1790,1751 C1789.64644,1755.99436 1783.43038,1753.86653 1790,1751 L1790,1751 Z M1800.27076,1763 C1801.64656,1763.53035 1800.59357,1766.03381 1800.90499,1767.98834 C1795.90797,1768.18263 1798.50101,1765.92598 1800.27076,1763 L1800.27076,1763 Z M1810,1973 C1806.59222,1976.86087 1803.17054,1984.98336 1799,1985 C1802.04074,1980.77841 1804.72117,1974.04258 1810,1973 L1810,1973 Z M1809,1966.32711 C1807.03573,1966.59118 1806.14293,1966.71206 1804,1967 C1806.79,1964.63996 1805.88701,1964.30844 1809,1966.32711 L1809,1966.32711 Z M1815,1937 C1814.76449,1938.61428 1814.55209,1940.06842 1814.27035,1942 C1811.13112,1939.83044 1811.13112,1939.83044 1815,1937 L1815,1937 Z M1821,1933.30446 C1820.52332,1936.71581 1819.55664,1939.43891 1816,1941 C1817.64121,1938.06135 1816.83957,1931.51662 1821,1933.30446 L1821,1933.30446 Z M1851.99694,1857 C1852.09646,1861.73881 1849.74013,1863.15376 1849,1866 C1849.26144,1862.76532 1849.3478,1859.40503 1851.99694,1857 L1851.99694,1857 Z M1866,1841.01426 C1864.20623,1841.60804 1862.41191,1842.20182 1860,1843 C1861.39916,1840.02188 1863.06941,1839.07076 1866,1841.01426 L1866,1841.01426 Z M1864,1774 C1862.7568,1776.09171 1862.72936,1779.88247 1861.07311,1778.8139 C1860.85065,1775.66011 1860.95929,1774.84419 1864,1774 L1864,1774 Z M1873,1765.13529 C1871.51806,1766.15534 1870.39041,1766.49169 1870,1764.91945 C1870.82266,1763.47095 1871.82591,1763.8797 1873,1765.13529 L1873,1765.13529 Z M1882.61476,1751.48094 C1881.42317,1744.99548 1888.54324,1752.67305 1878.70839,1758 C1877.42881,1754.18011 1877.42881,1754.18011 1882.61476,1751.48094 L1882.61476,1751.48094 Z M1873,1778 C1872.20037,1778.94274 1871.40116,1779.88511 1870.45599,1781 C1869.13233,1778.36359 1870.90766,1778.07606 1873,1778 L1873,1778 Z M1884,1772 C1882.7595,1775.37698 1881.69165,1777.38575 1878,1776.93792 C1879.69982,1775.53828 1881.40018,1774.13915 1884,1772 L1884,1772 Z M1913.20557,1806 C1919.67965,1806.76852 1916.91797,1811.13913 1912,1812 C1912.49076,1809.55913 1912.83845,1807.82642 1913.20557,1806 L1913.20557,1806 Z M1835,1923 C1833.96325,1924.79077 1833.19352,1926.12157 1832.1063,1928 C1831.84009,1923.63794 1831.84009,1923.63794 1835,1923 L1835,1923 Z M1841.03985,1971.45535 C1847.51761,1979.39311 1846.272,1963.60092 1854.44819,1973.21419 C1856.08973,1971.43262 1857.6866,1968.95098 1859.82845,1972.38223 C1863.2399,1971.43663 1869.98098,1969.55702 1865.52517,1974.76093 C1864.29837,1977.71982 1863.44962,1975.51357 1861.50714,1975.32731 C1858.66419,1980.28568 1851.76605,1973.41249 1853.37233,1981 C1849.79677,1973.40046 1825.74735,1987.42623 1841.03985,1971.45535 L1841.03985,1971.45535 Z M1912.06619,2106.78301 C1911.75701,2079.05648 1914.46897,1955.98956 1910.4264,2035.47479 C1911.15762,2067.54186 1907.171,2100.11917 1914.11,2131.37707 C1915.53355,2138.60278 1913.72826,2129.89753 1911.03006,2133.89602 C1911.9998,2137.92152 1912.15676,2141.82242 1911.03575,2146.62914 C1907.67697,2143.92684 1909.8583,2140.97582 1909.89055,2137.51409 C1908.43759,2132.95657 1905.36192,2138.81076 1906.73616,2141.44768 C1910.08782,2150.83751 1905.87501,2159.44849 1899.84932,2166.73958 C1901.89598,2168.1978 1905.27751,2167.24508 1905.24669,2170.75655 C1902.0316,2173.68199 1905.1784,2178.62326 1900.33301,2181.50321 C1899.80664,2178.30394 1897.93781,2175.35482 1901.33642,2172.5554 C1902.58167,2166.7988 1895.59241,2172.77854 1898.49311,2160.6613 C1892.22321,2150.18041 1905.94946,2129.64786 1893.24322,2123.90073 C1900.6512,2122.50174 1901.2008,2058.92378 1897.51625,2067.70673 C1897.29195,2082.42536 1897.66136,2097.16388 1896.81538,2111.86783 C1894.38936,2120.59866 1882.56324,2110.89947 1876.72439,2111.68685 C1850.4536,2114.11058 1890.09783,2094.52507 1882.871,2092.09139 C1851.30717,2110.21347 1897.46314,2072.10934 1893.14695,2062.57312 C1901.47773,2059.29568 1902.03871,2060.00394 1898.83074,2052.37743 C1896.15482,2045.9969 1897.53474,2054.91439 1897.94019,2057.45514 C1889.9257,2060.51418 1882.47883,2063.39177 1874.99166,2066.16418 C1865.88935,2061.33283 1858.10675,2071.37644 1851.74438,2067.68494 C1852.47228,2069.36914 1852.94933,2070.91026 1849.34397,2070.73403 C1852.37649,2068.06442 1853.07167,2063.98775 1849.17041,2062.28839 C1851.69649,2055.50232 1857.96733,2045.70933 1857.21999,2058.93563 C1862.1294,2052.64747 1870.66504,2051.15704 1858.1058,2047.93503 C1857.91754,2034.20797 1849.04096,2035.82632 1859.77072,2017.68528 C1861.50109,2025.47287 1864.55827,2013.91609 1860.3023,2010.62491 C1856.48925,2012.8454 1852.37886,2008.98192 1856.67561,2005.91862 C1849.0623,2005.57847 1856.19477,2000.36337 1855.02539,1997.93395 C1849.97514,2000.14307 1845.50151,1996.62497 1840.38298,2006.68516 C1833.05371,2011.8093 1837.56432,2022.43563 1831.98391,2029.54053 C1816.68237,2005.30464 1799.76664,2057.89147 1783.14823,2019.87877 C1788.42752,2030.58848 1773.70687,2018.37933 1781.80908,2016.64823 C1767.5816,2007.01963 1785.643,1991.98596 1783.17336,1981.57045 C1788.39954,1987.14655 1793.38767,1973.47918 1799.18811,1980.04922 C1800.19531,1985.14825 1791.28933,1979.59678 1796.24711,1984.92179 C1788.32746,1984.27417 1795.35466,1989.71193 1790.4571,1993.00311 C1789.56703,1997.19963 1797.33635,1983.72603 1806.25182,1991.13367 C1804.291,1986.06449 1811.57995,1983.5858 1813.08981,1978.71749 C1822.94231,1982.33461 1823.00253,1982.47342 1825.05677,1985.63337 C1832.09393,1981.5316 1837.62217,1978.58721 1846.21471,1980.84418 C1861.54377,1981.74005 1876.58355,1978.32522 1892.10561,1979.05623 C1887.18671,1973.99889 1874.70287,1980.41638 1867.37028,1975.24392 C1868.33102,1969.07563 1877.1654,1971.16015 1877.33896,1967.01669 C1868.10767,1964.8322 1834.95052,1974.46601 1845.20419,1960.32537 C1848.35147,1959.73317 1849.00587,1965.46703 1853.09728,1962.87133 C1845.1653,1956.50453 1881.79219,1900.02959 1865.37769,1915.01068 C1867.34278,1905.80751 1861.22368,1916.88296 1856.8468,1917.91385 C1859.27708,1912.97021 1871.45459,1891.81941 1863.12665,1900.94157 C1850.86569,1895.88423 1866.33226,1904.83584 1858.20538,1908.34636 C1858.62979,1905.65685 1858.62979,1905.65685 1855.75803,1901.87439 C1856.28487,1906.05339 1850.84245,1915.86438 1848.38656,1913.93857 C1851.33609,1911.31776 1847.64633,1910.122 1846.5073,1908.33689 C1843.49137,1908.84854 1839.73949,1920.32337 1839.51993,1913.68795 C1832.43251,1918.96085 1835.95536,1907.08475 1842.3035,1908.59224 C1838.38754,1894.1555 1837.28644,1910.26365 1830.92692,1916.2685 C1823.28421,1889.50938 1853.7678,1872.35044 1858.63454,1847.70995 C1856.03117,1848.81286 1856.23602,1851.26217 1855.54559,1853.24673 C1851.45749,1859.40745 1853.88256,1842.47685 1859.8869,1846.79845 C1861.83919,1847.28168 1863.2139,1847.321 1862.78475,1844.58507 C1865.57306,1841.22282 1869.25761,1835.56382 1873.48749,1834.19656 C1874.07408,1837.88664 1877.54002,1835.64862 1879.12622,1836.15364 C1884.55963,1840.10429 1886.66556,1827.76391 1888.8872,1835.79169 C1889.2438,1830.63629 1891.71629,1828.30968 1896.66553,1829.15628 C1902.28245,1829.68831 1900.41979,1822.10822 1907.81544,1825.03413 C1901.44406,1823.06473 1903.70885,1811.28528 1908.69129,1815.8376 C1911.23776,1816.69083 1912.9188,1813.09503 1916.38901,1813.71991 C1930.23191,1821.60083 1912.17478,1811.32839 1923.75906,1805.21743 C1916.78592,1795.19561 1915.50747,1812.31807 1913.71641,1798.88853 C1909.67384,1791.8869 1920.97644,1799.77208 1919.72929,1791.07109 C1915.12194,1784.79099 1913.63532,1767.2322 1904.72696,1780.92136 C1909.93844,1786.71728 1905.71899,1786.78456 1901.48342,1782.363 C1906.43219,1776.27809 1896.06377,1774.81181 1901.30797,1768.34079 C1900.89968,1778.28112 1909.40876,1768.31805 1913.03451,1775.31257 C1915.75737,1771.0303 1910.62793,1770.11311 1909.5164,1767.53493 C1916.55688,1762.21703 1908.27589,1765.66692 1903.73114,1767.10713 C1905.1969,1762.73248 1906.43362,1760.01312 1901.01776,1758.6146 C1901.33974,1760.66643 1902.93164,1762.33784 1901.11734,1764.20443 C1889.19258,1755.91324 1905.76879,1781.28757 1893.9384,1789.10264 C1890.81341,1798.32618 1880.78498,1785.64612 1881.01592,1780.59305 C1891.40948,1763.10248 1887.97199,1782.1915 1892.51484,1765.12826 C1885.87839,1755.51813 1902.06479,1764.26034 1899.77819,1754.84066 C1901.58111,1748.02948 1898.67567,1735.43944 1897.68601,1748.9282 C1898.71361,1754.72033 1897.97243,1757.65951 1892.17863,1756.8238 C1888.25651,1758.97986 1889.5819,1754.74923 1892.37685,1752.95606 C1889.67627,1752.41551 1887.92836,1753.11856 1886.82157,1754.79139 C1883.07206,1759.50526 1886.77605,1759.87668 1887.56465,1765.0155 C1882.00273,1767.98595 1876.90127,1771.70208 1871.71445,1775.24293 C1866.82922,1774.34753 1867.76482,1781.84945 1862.98487,1782.09012 C1861.86812,1778.60944 1879.69005,1761.54619 1873.9394,1770.72899 C1880.24819,1769.9563 1875.91303,1764.06562 1884.37706,1762.37858 C1877.08479,1760.83082 1886.11169,1759.18121 1882.6026,1755.23009 C1885.78165,1751.43389 1892.56321,1752.172 1892.28248,1747.00996 C1893.05543,1732.60259 1884.61606,1745.09931 1880.69441,1746.50494 C1900.38327,1717.65419 1887.00699,1750.96061 1896.82723,1734.33559 C1888.84879,1732.2378 1902.56413,1732.20653 1899.02421,1727.47419 C1889.09158,1739.16789 1892.57222,1714.67143 1883.04835,1724.92823 C1880.53128,1728.58799 1875.01442,1732.12884 1878.70608,1724.85859 C1888.01182,1714.55631 1861.77375,1718.27102 1857.321,1724.39383 C1845.4503,1744.08121 1832.60986,1742.95414 1817.60564,1758.27728 C1812.68769,1757.30751 1808.2226,1772.28954 1809.18049,1762.65289 C1798.0524,1764.92644 1806.0095,1765.99097 1801.66249,1755.3291 C1797.64743,1749.27499 1809.86097,1755.43001 1803.5299,1748.50608 C1800.71836,1747.78218 1803.46588,1744.98039 1801.22101,1744.20391 C1799.27584,1748.73869 1795.91422,1742.30841 1792.81009,1749.16128 C1792.78686,1744.28208 1789.75765,1748.00153 1789.61113,1750.43474 C1781.00294,1753.47483 1784.42952,1749.78806 1783.40809,1742.34963 C1778.45268,1742.90866 1778.10794,1747.3648 1775.66912,1750.24381 C1768.37874,1751.50542 1774.38687,1748.74012 1775.28596,1744.09684 C1773.25922,1743.7131 1770.938,1746.206 1768.86906,1742.29515 C1765.37324,1742.92051 1762.00451,1743.83296 1764.97302,1738.85995 C1765.8427,1736.96209 1775.66248,1728.80544 1769.71409,1730.50575 C1774.98057,1723.08248 1774.70127,1732.39366 1771.3572,1735.79333 C1775.41115,1734.66153 1776.56631,1730.73126 1776.31356,1737.57323 C1781.87263,1741.63995 1781.23814,1730.20586 1782.34446,1739.71176 C1789.78089,1741.76407 1787.6062,1735.7289 1788.17809,1731.72804 C1791.21345,1733.50652 1794.18196,1732.9617 1797.21116,1730.77721 C1788.18757,1730.72226 1789.3304,1728.30184 1794.51058,1721.06855 C1787.97371,1714.77092 1784.95162,1739.18305 1782.80396,1723.66615 C1780.70893,1720.85441 1778.70828,1719.29765 1781.16085,1715.73122 C1777.38098,1704.68277 1790.86065,1706.26085 1782.91208,1695.88324 C1778.6196,1697.91944 1782.86703,1701.72796 1780.81278,1704.90686 C1777.08745,1700.35928 1781.18361,1694.09813 1778.07759,1689.47286 C1772.25913,1694.16967 1765.63832,1686.08551 1765.59754,1696.91792 C1761.65076,1694.86325 1764.57042,1692.7124 1765.53827,1689.69174 C1756.33211,1695.0139 1762.87989,1681.23141 1757.05053,1678.87543 C1746.84523,1683.13828 1767.30467,1689.37858 1752.64282,1706.68723 C1746.75418,1699.12657 1761.38805,1697.84175 1753.57368,1691.00499 C1753.13504,1698.48795 1751.35631,1696.94824 1746.07465,1692.65365 C1749.83222,1691.59102 1748.954,1680.79698 1743.91561,1681.29821 C1739.12142,1712.15579 1732.91554,1694.94568 1729.86074,1713.71729 C1725.04379,1715.2243 1731.60959,1722.78164 1723.75301,1717.19797 C1726.3488,1710.55876 1718.66246,1716.69863 1716.61912,1719.42983 C1719.64785,1719.887 1721.35687,1721.31442 1719.23387,1723.68841 C1716.25825,1719.0873 1709.55209,1719.57385 1710.82248,1726.3296 C1710.99177,1726.73797 1709.618,1728.40891 1708.88062,1728.46623 C1703.65397,1728.71448 1704.00488,1733.26158 1700.60722,1735.50955 C1697.55857,1729.16408 1699.92342,1736.41774 1696.75006,1738.79931 C1695.71488,1740.8213 1689.87982,1747.73907 1694.76695,1746.31022 C1694.09975,1749.83828 1689.91586,1746.45946 1689.28992,1750.25045 C1690.99467,1753.75481 1685.70163,1755.02116 1687.88154,1758.94717 C1684.08081,1759.05092 1683.00295,1764.80326 1679.53558,1760.27653 C1677.00382,1764.23002 1674.20318,1758.44025 1678.43117,1758.48952 C1681.35604,1758.14226 1683.78443,1756.76553 1686.66473,1755.40111 C1674.8481,1749.65636 1677.35805,1762.11991 1668.28182,1762.09528 C1673.11109,1749.50097 1660.50538,1767.85898 1670.28248,1763.55918 C1669.35636,1766.71297 1668.76456,1767.91394 1666.80848,1764.63697 C1664.90218,1770.19412 1654.2867,1770.89717 1660.75055,1777.40373 C1656.99013,1780.18609 1656.57757,1774.76918 1655.85346,1772.54774 C1654.51147,1777.42315 1652.17223,1779.96532 1647.49803,1782.08869 C1648.68638,1784.29924 1646.46996,1786.37192 1643.58776,1786.60121 C1640.71409,1779.22011 1624.24221,1783.96287 1639.73107,1772.71687 C1637.54073,1768.59141 1635.3945,1771.60544 1633.09272,1772.47667 C1635.51684,1765.38882 1642.07221,1769.50812 1647.48664,1765.88532 C1642.0485,1759.69902 1649.74527,1757.05736 1645.0739,1751.98818 C1641.83273,1747.92763 1654.32938,1746.96969 1646.09676,1744.40999 C1655.6965,1740.21868 1641.82942,1742.78691 1640.17492,1737.60924 C1639.78513,1752.00855 1625.48557,1742.07817 1633.04767,1741.81097 C1638.53608,1741.69395 1634.11178,1735.42712 1633.62145,1732.44767 C1637.2363,1729.5175 1637.09072,1724.23797 1640.91468,1719.86426 C1645.16448,1716.51528 1649.14493,1714.20999 1645.84733,1709.10907 C1657.36996,1696.5266 1672.36043,1680.42177 1676.33899,1677.68015 C1675.57979,1674.45387 1679.9268,1677.10501 1679.66267,1674.08434 C1678.61848,1670.38431 1675.15301,1674.19994 1673.01483,1674.22457 C1668.398,1672.53801 1661.12374,1678.36093 1668.05705,1679.59033 C1658.90116,1680.10909 1649.90128,1689.64389 1664.79075,1685.57575 C1659.05338,1692.14342 1659.02777,1688.45523 1652.99592,1689.42027 C1653.61855,1691.46405 1654.07236,1695.49855 1655.42431,1690.19628 C1660.83353,1693.41214 1646.03985,1697.9744 1642.78635,1702.26899 C1642.10303,1710.55071 1634.74247,1705.63407 1632.26666,1713.11277 C1635.50119,1711.14053 1637.79348,1710.19444 1635.50736,1713.9878 C1639.39249,1714.19578 1637.34109,1716.7948 1637.65549,1718.87553 C1639.39818,1727.89157 1626.13143,1720.23047 1634.2915,1715.62984 C1630.66386,1713.83904 1627.64651,1716.9355 1628.14015,1720.28874 C1624.78849,1720.1343 1621.53357,1721.10787 1619.02742,1717.86264 C1616.32541,1724.21997 1611.90775,1725.24896 1609.38215,1717.74326 C1603.67892,1728.09291 1597.15296,1722.13828 1593.19005,1731.98055 C1582.95203,1733.88978 1575.35389,1746.54426 1564.56106,1750.48069 C1558.15554,1754.37259 1547.55475,1768.01343 1553.63212,1753.46582 C1551.9397,1743.61645 1556.15915,1744.13427 1562.66947,1749.4228 C1561.24639,1727.04686 1572.97198,1745.3215 1566.04389,1725.76772 C1572.41574,1729.0987 1572.88804,1722.5244 1571.27386,1718.13647 C1569.2732,1722.40217 1562.40533,1719.55774 1563.3324,1714.51177 C1565.87507,1716.69957 1568.14128,1722.35479 1570.13056,1716.50818 C1564.88826,1714.88225 1566.70208,1711.27271 1563.28071,1709.44922 C1560.88315,1707.78634 1560.27,1704.15833 1561.75473,1702.17329 C1554.3017,1700.60848 1550.74708,1691.84543 1543.75687,1689.62304 C1536.64479,1688.62579 1535.50955,1680.57195 1528.82046,1678.02409 C1530.66795,1675.73017 1514.57733,1670.50275 1513.31263,1674.61116 C1513.86413,1665.04794 1508.0433,1673.01081 1503.51941,1674.98685 C1493.00304,1679.50458 1484.28483,1688.74091 1474.549,1694.13888 C1474.97056,1697.66125 1472.6721,1695.18256 1471.74599,1695.65252 C1454.18013,1702.64326 1442.04245,1722.70821 1424.64683,1728.80355 C1396.25636,1774.62042 1338.16473,1803.34846 1319.42379,1855.38953 C1299.12226,1874.63678 1290.95176,1905.1831 1277.35639,1929.44695 C1274.06496,1933.38101 1280.8432,1943.07689 1272.5366,1941.28988 C1268.98673,1952.70928 1272.66322,1954.01732 1272.26536,1960.03874 C1265.05986,1967.85381 1259.22196,1971.72866 1255.08739,1981.11422 C1258.29964,1981.05216 1262.81736,1978.99038 1262.53995,1984.32581 C1253.1517,1980.94225 1253.7345,1991.60885 1251.02159,1997.54216 C1250.92058,2000.94893 1245.95,2003.94875 1249.76827,2006.55677 C1247.24931,2008.16801 1246.84908,2009.97728 1246.74476,2014.12122 C1249.04511,2009.48695 1254.17788,2014.78306 1246.30233,2014.51254 C1253.06255,2019.80818 1241.65041,2017.71039 1242.75103,2023.91848 C1246.84055,2024.99959 1243.96926,2031.07218 1241.21319,2025.1493 C1240.57444,2029.13595 1239.91151,2032.0467 1237.11799,2033.97536 C1235.12586,2036.99602 1237.90943,2042.36461 1234.29743,2045.0527 C1232.16827,2051.41334 1233.68429,2064.07113 1224.81245,2064.42645 C1229.44777,2069.73203 1228.30637,2084.30617 1218.27273,2083.89874 C1220.79975,2085.71132 1226.59829,2087.75747 1221.09802,2089.82968 C1223.3116,2095.43373 1220.00072,2095.42804 1218.53591,2099.4237 C1213.67439,2108.75762 1221.3944,2121.82521 1207,2121.93797 C1218.87781,2123.59137 1212.53251,2131.64616 1211.73823,2145.82897 C1210.46736,2156.86273 1219.06133,2144.99042 1217.00424,2154.56454 C1211.71452,2160.16196 1219.54691,2165.92567 1214.2017,2168.3783 C1218.74077,2168.73361 1219.32024,2175.86316 1223.24236,2177.39149 C1226.27157,2177.61984 1225.66127,2179.27419 1225.23306,2181.03799 C1233.73361,2184.72617 1232.12559,2191.14413 1242.28205,2189.31496 C1244.82377,2188.4532 1244.78156,2191.71975 1246.45976,2191.5762 C1248.90048,2191.09865 1251.27197,2196.8273 1253.03979,2192.23614 C1255.6792,2194.30029 1258.7544,2201.23938 1261.54128,2194.99576 C1263.18012,2198.32816 1276.52464,2204.12124 1275.167,2197.30011 C1283.12648,2197.32711 1276.88503,2199.91666 1282.21506,2203.17657 C1288.7178,2202.99844 1297.73996,2194.60491 1287.99748,2191.50134 C1303.63192,2190.31459 1293.74196,2228.84889 1324.4731,2226.4877 C1320.34896,2228.89911 1316.35334,2227.05336 1312.27567,2226.54786 C1315.84357,2235.81973 1324.67653,2228.70676 1327.55968,2235.97417 C1330.54383,2234.38567 1332.74175,2230.15788 1337.77636,2233.01936 C1335.84209,2234.62776 1332.195,2240.03852 1336.67953,2237.14814 C1344.09035,2230.01243 1354.7305,2237.78392 1362.88535,2231.44696 C1374.47674,2229.76277 1420.8608,2187.14043 1424.31441,2201.06599 C1425.73702,2198.05385 1427.40763,2196.09251 1426.11496,2192.74164 C1433.29153,2195.03793 1433.43758,2188.32813 1439.67903,2186.7311 C1438.86483,2209.57605 1443.65758,2193.09364 1447.30088,2183.26558 C1467.01203,2191.06454 1447.93583,2177.18636 1461.86931,2176.73439 C1461.99308,2187.17975 1468.24448,2172.86002 1473.17571,2172.68047 C1481.9143,2171.83624 1485.27449,2166.01189 1485.16922,2180.12506 C1488.02155,2175.02366 1488.54364,2176.92626 1490.04639,2181.86185 C1490.29013,2176.52926 1492.85082,2175.49884 1495.97581,2179.20124 C1499.58211,2186.76284 1496.46234,2195.15637 1503.77975,2201.09347 C1513.3444,2208.31255 1492.61561,2186.25071 1501.72646,2191.00816 C1511.31766,2212.54413 1536.90845,2197.50335 1517.88489,2221.32992 C1474.94163,2295.917 1402.55471,2362.50662 1392.7539,2447.18989 C1392.75912,2447.19273 1388.4216,2459.86237 1388.4216,2459.86237 C1390.06471,2460.88852 1389.46437,2462.63526 1388.79669,2464.10817 C1388.85217,2468.20236 1381.3171,2472.53248 1385.37437,2476.20266 C1388.99633,2469.24462 1389.7119,2458.5747 1396.171,2469.61083 C1394.26945,2482.02985 1401.85147,2479.07078 1398.26603,2485.15901 C1391.57362,2489.69142 1401.06003,2492.82247 1394.41598,2499.03909 C1393.80094,2494.27785 1389.45488,2494.91078 1391.79412,2498.52506 C1392.26073,2509.43565 1390.24727,2497.47948 1387.54717,2503.31473 C1385.2985,2495.44186 1390.78692,2498.3384 1390.15812,2491.81858 C1391.84391,2494.14141 1392.80796,2495.331 1396.06336,2495.63137 C1388.57239,2486.99007 1395.39094,2489.51898 1392.31385,2482.05259 C1389.79963,2486.01034 1389.79536,2490.66309 1386.83776,2494.3129 C1386.73296,2502.7538 1382.33948,2495.21778 1382.37078,2502.28147 C1382.40065,2503.11338 1384.44778,2504.21771 1381.73487,2504.00736 C1374.94193,2511.47469 1384.01152,2509.17603 1385.99937,2504.18028 C1384.59099,2509.62846 1388.19493,2510.04679 1385.71343,2512.68229 C1385.77033,2515.63758 1383.69807,2513.15557 1382.89714,2513.73118 C1383.63405,2517.36347 1380.71961,2522.87324 1385.88651,2522.54351 C1387.15121,2531.1649 1381.56796,2535.42917 1377.14934,2539.06382 C1378.04748,2536.88645 1382.27926,2532.98318 1377.9607,2532.21332 C1378.83987,2529.0818 1383.15701,2527.2171 1381.4679,2523.06416 C1378.99588,2527.81735 1378.7071,2524.40963 1376.11606,2521.37096 C1374.85942,2527.46061 1374.10497,2553.50436 1371.58553,2536.95372 C1371.43473,2535.47087 1371.2626,2534.1543 1368.71329,2534.20736 C1370.01165,2536.13128 1371.17724,2537.92113 1369.53603,2539.93648 C1365.65848,2535.64426 1366.63107,2540.21837 1364.12491,2542.80128 C1363.21587,2540.94416 1362.57285,2539.63186 1361.74726,2537.94197 C1360.13877,2541.68417 1354.5228,2541.96036 1360.22508,2543.28593 C1365.2189,2543.25324 1368.02427,2547.41945 1368.46908,2552.28586 C1370.36114,2554.91994 1374.16614,2553.61285 1375.85524,2556.42411 C1384.24008,2554.20362 1392.08481,2563.60577 1399.66208,2557.73831 C1404.77635,2552.7852 1416.89695,2556.82965 1416.85332,2550.1587 C1422.43942,2541.89214 1434.64206,2545.98397 1439.1503,2536.76564 C1438.8947,2533.03671 1437.09084,2537.03378 1435.79532,2535.73617 C1437.87611,2534.98053 1440.60135,2531.86559 1439.15409,2536.77464 C1446.99312,2538.52564 1445.1793,2525.46942 1449.92416,2519.03393 C1448.23221,2528.10587 1455.40309,2528.18309 1460.56715,2522.46202 C1471.38559,2510.71478 1468.74239,2538.98945 1476.17409,2511.65093 C1483.54318,2511.21981 1479.90179,2516.88592 1484.17245,2518.95623 C1519.40897,2502.94236 1532.62688,2464.06079 1547.1825,2431.80801 C1545.70868,2424.92908 1567.12554,2407.52473 1557.09617,2404.73526 C1559.64832,2401.56537 1559.64832,2401.56537 1559.24193,2398.31777 C1556.04249,2405.37815 1550.07703,2401.67717 1556.55226,2396.82308 C1549.77591,2395.17441 1556.76518,2391.38058 1553.77012,2388.68823 C1554.40175,2383.37743 1561.09417,2381.42414 1558.92232,2376.33316 C1557.69034,2372.95813 1564.13854,2371.72068 1559.06316,2370.26057 C1570.46013,2364.86734 1560.35157,2365.68883 1568.17116,2354.95259 C1565.43975,2351.73674 1570.1187,2346.99066 1572.92788,2351.06022 C1576.35825,2354.0913 1577.21134,2348.31765 1580.31784,2349.55983 C1583.00751,2351.00479 1588.66521,2349.54609 1583.52629,2347.78799 C1581.5261,2347.56011 1577.70688,2349.27368 1577.50108,2346.19854 C1575.81671,2342.22184 1580.61232,2332.13132 1580.97461,2341.41314 C1582.77942,2338.73168 1583.42528,2335.37323 1584.46426,2340.18564 C1592.78887,2333.0651 1595.68767,2328.39908 1593.43237,2342.923 C1596.54455,2338.4569 1596.26952,2332.21565 1600.06029,2330.03827 C1601.8798,2326.16343 1595.9646,2320.15242 1600.95179,2317.20424 C1615.63735,2314.0225 1602.36254,2291.76975 1612.69303,2284.65821 C1606.09498,2285.75305 1611.13195,2279.69657 1614.62255,2277.7826 C1612.44028,2281.3604 1611.95896,2282.0246 1615.25941,2284.38106 C1612.61526,2288.74814 1612.98229,2292.96361 1614.43477,2297.31268 C1609.41297,2303.03233 1610.69095,2306.3183 1618.12027,2306.75605 C1612.9894,2314.74072 1624.21518,2304.356 1617.49148,2317.39043 C1625.18256,2307.94328 1620.239,2317.61167 1625.46803,2323.33653 C1630.2532,2318.54639 1623.20419,2319.44463 1625.67146,2315.45561 C1633.52424,2306.62861 1635.78619,2288.24216 1647.98171,2285.93687 C1640.62921,2277.67174 1653.78215,2266.72373 1655.75815,2257.6859 C1651.52874,2250.84203 1656.58705,2242.44946 1659.20465,2231.81839 C1652.60803,2232.96582 1655.36219,2233.02931 1654.05719,2238.08854 C1652.83375,2236.44887 1653.48151,2234.93854 1653.51091,2233.49548 C1656.98206,2226.93208 1657.03091,2219.59266 1659.02255,2212.50955 C1649.93827,2217.34943 1658.98889,2205.30562 1659.00169,2198.1614 C1649.82256,2191.72117 1662.00434,2185.59693 1665.36595,2178.30821 C1665.94353,2175.2776 1670.80552,2174.494 1673.71428,2176.30517 C1678.40082,2174.96302 1672.90671,2170.90673 1676.10378,2168.62655 C1677.95886,2197.17646 1674.63091,2223.54378 1675.00553,2251.8355 C1682.23806,2245.50376 1678.06888,2249.74813 1682.57474,2251.51097 C1680.08376,2260.05231 1666.41489,2257.99668 1659.25681,2258.36621 C1672.08777,2258.18145 1674.5337,2269.7586 1667.92902,2277.74422 C1672.1276,2287.7613 1666.30867,2298.66383 1667.28932,2309.70043 C1663.84139,2318.93013 1660.82073,2327.90922 1656.04741,2336.80824 C1660.41244,2342.52409 1659.91263,2344.92651 1654.92972,2350.61157 C1651.23758,2348.63175 1654.66701,2347.00392 1654.69357,2345.16101 C1650.05492,2344.43806 1650.98294,2347.00724 1649.95439,2350.12597 C1646.16979,2359.82848 1637.79443,2367.8411 1636.82421,2378.33051 C1639.00839,2380.31318 1640.37172,2377.56398 1641.01663,2374.89437 C1642.70052,2378.87818 1636.66868,2384.67931 1634.03069,2380.52258 C1632.30934,2386.61555 1629.9867,2390.36816 1628.01971,2395.99401 C1635.56379,2392.06515 1629.08951,2404.87076 1637.45538,2392.59102 C1638.8666,2399.62818 1632.11017,2394.90958 1634.60542,2400.43357 C1640.33046,2399.30129 1637.0101,2406.33561 1632.3928,2405.21233 C1609.16354,2426.09926 1595.57623,2487.03129 1596.94383,2519.55648 C1602.69211,2539.56079 1565.07035,2620.6279 1580.8314,2618.51542 C1586.88269,2614.97363 1588.55425,2623.01752 1594.542,2623.82195 C1598.90608,2623.72152 1603.55468,2610.36115 1601.84661,2622.28888 C1603.98478,2616.64361 1610.38935,2613.70017 1608.62248,2607.06002 C1611.88262,2609.2284 1617.12966,2608.99342 1614.91609,2604.40936 C1636.33436,2597.00646 1629.972,2616.75116 1629.56418,2632.87352 C1630.43102,2638.37572 1624.12224,2635.21908 1625.34853,2641.10881 C1625.33525,2643.81964 1621.53357,2646.15572 1624.53764,2649.1906 C1619.17489,2658.41082 1623.74857,2669.5346 1634.54662,2670.93454 C1631.38417,2674.1196 1629.11511,2669.85344 1627.53033,2670.53091 C1626.29172,2674.51992 1634.56464,2676.15485 1627.00065,2677.34824 C1633.12449,2681.02458 1624.5917,2694.60762 1622.95713,2701 L1919.16831,2152.60935 C1913.31855,2150.8522 1913.44564,2156.09382 1914.00852,2137.00433 C1921.79586,2138.93962 1914.22713,2130.55463 1920.5985,2129.88568 C1922.83057,2138.31805 1921.13056,2122.34113 1934.28539,2124.62274 L1940,2114.04331 C1930.92615,2114.65114 1915.46669,2120.98098 1912.06619,2106.78301 L1912.06619,2106.78301 Z"></path>
        </g>
    </g>
</svg>